<?xml version="1.0" standalone="no"?>
<!DOCTYPE svg PUBLIC "-//W3C//DTD SVG 20010904//EN"
 "http://www.w3.org/TR/2001/REC-SVG-20010904/DTD/svg10.dtd">
<svg version="1.0" xmlns="http://www.w3.org/2000/svg"
 width="1111.000000pt" height="1280.000000pt" viewBox="0 0 1111.000000 1280.000000"
 preserveAspectRatio="xMidYMid meet">
<metadata>
Created by potrace 1.15, written by Peter Selinger 2001-2017
</metadata>
<g transform="translate(0.000000,1280.000000) scale(0.100000,-0.100000)"
fill="#000000" stroke="none">
<path d="M7255 12793 c-22 -2 -114 -15 -205 -29 -196 -29 -214 -39 -305 -159
-116 -156 -199 -216 -298 -219 -29 0 -64 3 -78 7 -23 6 -28 3 -37 -21 -12 -29
-15 -52 -13 -94 1 -34 46 -88 73 -88 16 0 18 -3 10 -13 -6 -7 -30 -60 -53
-118 -22 -57 -49 -120 -59 -139 -10 -19 -24 -50 -31 -68 -6 -19 -22 -40 -35
-48 -27 -18 -45 -11 -111 42 -76 62 -80 38 -12 -78 47 -80 49 -111 12 -135
-21 -14 -44 -17 -96 -16 -118 4 -135 -25 -67 -119 57 -80 64 -104 40 -128 -10
-10 -35 -22 -55 -26 -26 -5 -35 -11 -31 -21 3 -8 6 -16 6 -18 0 -2 22 -20 49
-39 27 -20 64 -59 82 -87 31 -49 33 -58 39 -169 6 -133 7 -133 92 -191 32 -22
58 -46 58 -54 0 -21 -33 -35 -79 -35 -22 0 -76 -11 -120 -25 -76 -24 -86 -31
-191 -130 -61 -58 -116 -105 -123 -105 -16 0 -54 41 -95 101 -17 26 -67 77
-111 113 -70 60 -104 106 -83 114 59 22 112 64 148 118 46 69 54 105 54 256 0
108 4 120 61 188 82 97 88 172 33 362 -34 114 -37 137 -45 308 -8 210 -21 267
-74 330 -19 23 -35 50 -35 59 0 30 -54 99 -109 141 -29 22 -98 65 -153 97 -55
31 -102 62 -105 69 -14 37 -167 50 -333 30 -68 -9 -146 -16 -172 -16 -67 0
-145 -30 -254 -97 -52 -32 -127 -78 -168 -103 -40 -25 -106 -79 -147 -120 -91
-92 -234 -220 -247 -220 -16 0 -42 -36 -48 -68 -13 -65 36 -102 162 -122 38
-6 83 -15 100 -21 l31 -10 -14 -42 c-10 -27 -13 -63 -10 -102 3 -33 2 -123 -2
-200 -4 -77 -3 -167 1 -200 4 -33 12 -113 16 -178 7 -98 12 -122 30 -145 45
-56 53 -72 48 -90 -10 -31 -55 -44 -161 -49 -90 -4 -107 -8 -171 -41 l-70 -35
-46 31 c-91 62 -160 165 -161 237 0 22 12 85 26 140 25 89 27 111 21 200 -7
122 -26 185 -66 226 -28 27 -36 30 -72 25 -60 -9 -66 -9 -118 5 -48 13 -116 5
-193 -23 -16 -6 -51 -13 -78 -17 -29 -5 -58 -17 -75 -33 -15 -14 -61 -37 -102
-51 -41 -14 -201 -69 -355 -122 -274 -94 -337 -124 -350 -165 -4 -13 -24 -25
-60 -35 -98 -29 -95 -69 4 -45 46 11 50 10 74 -14 38 -38 79 -34 368 34 140
33 264 62 276 65 19 4 24 -1 34 -37 16 -63 33 -90 97 -162 32 -36 64 -82 71
-103 7 -21 53 -112 101 -203 109 -203 160 -310 159 -330 0 -8 -46 -44 -101
-80 -118 -76 -214 -167 -249 -236 -27 -53 -9 -41 -331 -209 -107 -56 -133 -77
-267 -219 -68 -72 -105 -96 -121 -80 -9 9 -195 365 -302 577 -36 72 -79 238
-108 419 l-21 137 42 107 c30 76 44 131 50 190 5 45 13 101 18 125 8 33 5 55
-11 108 -24 78 -74 134 -134 150 -24 6 -72 38 -123 79 -56 47 -99 74 -135 85
-86 28 -114 23 -176 -28 -30 -25 -80 -57 -110 -71 -30 -14 -62 -29 -70 -33 -8
-4 -29 -30 -47 -57 -18 -27 -48 -66 -68 -86 -33 -34 -35 -41 -35 -102 0 -75
32 -237 60 -299 10 -23 39 -71 64 -107 146 -206 138 -183 191 -492 56 -323
176 -739 318 -1108 14 -36 37 -114 51 -173 30 -125 78 -246 108 -273 17 -16
37 -19 129 -19 60 0 109 -4 109 -8 0 -5 -27 -59 -59 -120 -32 -62 -64 -128
-70 -147 -8 -27 -32 -51 -101 -104 -131 -100 -123 -85 -180 -346 -12 -52 -37
-149 -57 -215 -29 -99 -42 -127 -73 -160 -83 -88 -223 -297 -555 -825 -255
-406 -510 -894 -706 -1353 -66 -154 -139 -359 -139 -393 0 -12 -11 -41 -24
-65 -28 -50 -68 -183 -93 -309 -22 -115 -24 -301 -2 -326 8 -11 27 -55 41 -99
78 -242 357 -815 432 -886 14 -13 26 -28 26 -32 0 -16 90 -187 141 -268 28
-45 80 -120 116 -168 104 -135 155 -270 169 -445 6 -65 15 -99 48 -171 23 -49
57 -115 77 -145 20 -31 48 -83 63 -116 22 -49 25 -65 17 -87 -14 -35 -120
-183 -235 -326 l-91 -113 -170 -85 c-284 -143 -382 -217 -421 -320 -15 -39
-16 -58 -7 -146 9 -90 13 -103 37 -124 58 -50 118 -58 406 -57 335 0 417 10
540 63 124 53 225 115 388 239 83 62 145 102 159 102 13 0 43 -10 66 -22 29
-14 59 -21 97 -20 62 0 373 61 472 92 89 27 102 44 101 128 -2 127 -46 267
-118 378 -25 38 -45 76 -45 85 0 8 14 28 30 44 38 36 39 78 4 130 -14 21 -38
72 -53 114 -39 104 -114 274 -275 618 -75 160 -163 363 -196 451 -142 380
-308 733 -569 1211 -28 52 -71 115 -96 142 -25 27 -45 58 -45 70 0 13 51 89
118 178 115 151 368 510 520 736 41 61 89 126 106 145 18 19 44 55 58 80 15
25 51 72 81 105 30 33 57 70 61 82 12 37 59 62 214 112 159 52 230 83 239 106
3 8 12 15 21 15 8 0 37 14 64 31 31 20 63 32 86 33 l37 1 6 -55 c3 -31 11 -64
16 -75 6 -11 16 -72 22 -135 7 -63 16 -135 21 -160 6 -25 22 -121 36 -215 14
-93 38 -240 54 -325 16 -85 36 -191 44 -235 9 -44 36 -147 60 -230 25 -82 48
-167 52 -189 4 -21 56 -138 116 -260 112 -226 172 -365 202 -470 10 -32 30
-82 46 -110 16 -28 70 -150 120 -270 90 -216 132 -308 153 -334 6 -7 18 -34
26 -60 21 -62 70 -133 182 -267 131 -158 173 -213 202 -272 15 -28 31 -54 36
-57 18 -12 53 -121 92 -289 50 -219 99 -328 183 -410 33 -32 72 -65 87 -72 14
-8 30 -22 35 -32 4 -10 9 -106 9 -213 1 -160 5 -204 19 -245 25 -68 42 -85 86
-85 55 0 65 -17 51 -88 -10 -53 -28 -106 -137 -412 -49 -139 -46 -238 12 -316
19 -26 35 -33 101 -47 167 -36 369 -45 583 -27 110 9 119 12 225 64 78 38 130
72 176 115 l66 60 6 78 c9 115 -7 209 -53 324 -22 55 -40 108 -40 120 0 11 -9
47 -21 81 -11 34 -23 83 -26 109 l-6 48 34 3 c33 3 34 5 37 48 5 60 -11 135
-65 315 -31 102 -53 158 -69 176 -14 14 -52 88 -85 165 -32 76 -68 147 -78
158 -11 12 -29 55 -41 96 -54 186 -232 595 -311 717 -53 81 -140 274 -178 398
-139 443 -184 527 -414 757 -162 162 -198 211 -228 308 -51 164 -55 250 -69
1330 -6 436 -16 836 -23 915 -13 155 -13 291 0 435 9 98 25 140 63 175 13 11
31 40 42 64 21 49 22 61 34 521 l7 285 48 23 c74 36 228 213 259 299 6 15 21
48 34 73 13 25 33 75 45 111 14 42 33 77 54 97 40 39 145 102 169 102 10 0 47
26 82 59 61 54 138 101 169 101 28 0 35 -22 30 -94 -6 -78 17 -220 43 -265 8
-14 25 -44 37 -66 13 -22 47 -71 75 -108 29 -37 55 -79 58 -92 3 -14 12 -25
19 -25 41 0 87 -137 104 -307 10 -94 10 -97 -13 -120 -13 -13 -39 -61 -57
-106 -17 -45 -42 -102 -55 -127 -35 -69 -70 -254 -80 -425 -8 -124 11 -539 31
-705 36 -289 86 -454 193 -635 53 -90 89 -124 177 -165 118 -56 252 -75 318
-46 14 7 17 3 17 -20 0 -48 42 -397 50 -420 4 -11 33 -34 64 -50 l56 -29 0
-70 c0 -38 5 -108 10 -155 24 -199 30 -279 41 -540 12 -293 3 -492 -24 -534
-8 -11 -19 -49 -25 -83 -6 -34 -38 -126 -71 -205 -32 -79 -64 -170 -70 -203
-48 -288 -45 -794 9 -1289 24 -215 25 -290 5 -346 -8 -23 -15 -75 -15 -116 0
-40 -4 -75 -9 -78 -4 -3 -2 -38 4 -78 9 -50 10 -79 3 -92 -6 -11 -9 -86 -7
-185 3 -128 0 -186 -14 -255 -10 -51 -17 -135 -17 -200 0 -82 -5 -131 -21
-186 -11 -41 -21 -106 -22 -143 -2 -68 -2 -69 38 -106 27 -24 67 -46 120 -65
84 -30 113 -47 183 -107 89 -77 313 -176 506 -224 144 -36 242 -32 367 14 77
28 88 36 108 72 18 32 22 50 17 81 -12 72 -46 119 -200 277 -114 117 -172 186
-232 276 -107 161 -199 321 -215 372 -17 59 -10 66 109 99 22 6 13 22 -17 29
-46 10 -56 28 -35 64 23 40 7 63 -38 54 -29 -6 -31 -5 -24 18 17 61 18 126 2
157 -9 18 -23 32 -30 32 -20 0 -28 28 -15 51 11 22 6 73 -17 187 -13 60 -14
94 -4 205 23 278 52 502 90 687 52 257 90 461 96 515 6 55 12 65 62 120 81 87
92 117 92 256 0 81 4 125 14 145 18 36 33 129 41 254 4 52 13 122 20 155 30
131 65 616 65 897 0 202 12 328 35 385 10 24 30 40 83 67 68 34 69 35 76 82
11 82 6 247 -10 314 -9 36 -18 92 -21 125 -5 60 -4 60 41 113 25 30 46 57 46
62 0 4 9 10 19 13 12 3 21 15 23 33 7 66 57 35 315 -198 130 -117 134 -123
172 -258 l18 -65 56 -3 56 -3 54 -87 c123 -196 222 -381 263 -490 18 -46 24
-83 24 -140 0 -42 7 -174 16 -292 15 -190 22 -234 60 -380 221 -847 244 -993
170 -1080 -37 -45 -33 -75 23 -164 39 -62 51 -90 56 -135 16 -147 56 -385 80
-466 31 -109 100 -252 128 -266 124 -67 786 282 1157 610 124 110 173 178 190
269 7 40 5 52 -12 80 -58 94 -153 107 -321 43 -125 -48 -202 -63 -327 -64 -72
-1 -103 3 -127 16 -34 18 -63 62 -63 96 0 13 -9 21 -30 26 -37 8 -77 55 -86
100 -3 19 -13 40 -21 46 -55 46 -86 184 -133 589 -65 574 -73 753 -35 843 24
58 45 172 45 246 0 97 -17 174 -60 276 -51 121 -126 324 -196 534 l-59 173 25
17 c13 9 36 26 49 37 l25 21 -31 99 c-47 146 -46 143 -29 168 14 22 11 37 -35
207 -27 101 -50 202 -51 223 -3 37 -1 40 32 52 19 7 87 20 151 29 109 16 118
16 149 0 48 -25 214 -37 276 -21 60 16 143 57 165 82 9 11 20 36 23 57 5 28
14 40 32 47 47 18 72 10 152 -49 70 -52 86 -60 141 -66 39 -4 85 -2 127 6 73
14 97 7 102 -30 2 -15 -9 -35 -37 -63 -32 -31 -41 -48 -41 -74 0 -46 29 -64
102 -64 46 0 62 5 85 24 27 23 27 26 14 58 -61 150 -60 153 52 146 92 -6 147
-27 147 -57 0 -11 -11 -33 -25 -49 -23 -28 -24 -33 -13 -68 22 -66 101 -94
128 -44 6 12 5 36 -6 76 -26 95 -27 103 -13 120 11 14 26 15 86 10 40 -3 89
-12 108 -20 38 -16 40 -25 35 -128 -3 -70 6 -88 43 -88 18 0 47 9 65 20 40 25
42 60 6 102 -47 57 -11 103 91 117 55 8 63 12 116 69 60 64 92 130 111 232 14
78 5 197 -21 256 -44 100 -143 169 -258 181 -29 3 -56 9 -58 14 -3 4 -1 20 5
34 24 63 29 105 13 120 -20 21 -49 19 -73 -5 -17 -17 -20 -33 -20 -98 0 -91
-13 -116 -68 -132 -20 -5 -75 -10 -121 -10 l-83 0 5 28 c35 164 33 182 -23
182 -37 0 -43 -19 -29 -96 16 -90 3 -109 -82 -117 -34 -4 -84 -7 -111 -7 -42
0 -49 3 -44 18 15 51 28 144 22 165 -12 49 -105 67 -138 26 -18 -21 -24 -85
-10 -104 4 -6 22 -21 40 -34 72 -50 30 -71 -158 -78 l-135 -6 -60 -50 c-33
-27 -71 -62 -85 -77 -22 -24 -38 -29 -139 -44 -63 -9 -115 -15 -116 -14 -1 2
-37 59 -79 126 -99 158 -165 284 -209 397 -43 109 -152 481 -162 553 -4 31 0
124 9 225 20 212 62 700 77 903 6 84 9 234 7 335 -6 240 -18 282 -116 389 -62
68 -75 76 -128 90 l-59 15 3 62 c3 41 -1 70 -12 90 -16 32 -56 63 -81 63 -8 0
-33 13 -55 29 -51 37 -152 78 -212 86 -25 3 -61 16 -80 28 -54 37 -66 73 -68
205 0 65 -1 124 -2 132 -4 49 4 92 21 109 10 10 20 38 23 64 7 62 42 129 78
150 49 29 64 69 55 146 -5 36 -9 138 -9 226 -1 136 -4 165 -19 188 -9 15 -23
27 -29 27 -26 0 -50 39 -78 130 -32 103 -61 143 -113 156 -31 7 -87 75 -87
105 0 23 -92 93 -145 109 -47 15 -100 44 -135 75 -14 12 -38 25 -55 29 -16 4
-55 22 -85 41 -31 18 -69 37 -85 41 -16 4 -40 13 -54 20 -25 13 -118 16 -216
7z"/>
</g>
</svg>
